<svg width="1401" height="1789" viewBox="0 0 1401 1789" fill="none" xmlns="http://www.w3.org/2000/svg">
<path d="M459.007 0.357793C456.564 0.663078 449.769 0.968362 443.89 0.968362C438.012 1.04468 432.973 1.19733 432.668 1.42629C432.286 1.65525 429.079 2.1895 425.568 2.64743C417.399 3.6396 399.076 7.98991 393.197 10.3559C392.358 10.6612 390.296 11.348 388.617 11.8823C383.578 13.4087 369.836 18.6749 365.331 20.7355C330.976 36.6867 310.287 50.8061 285.475 75.5342C270.206 90.7221 262.266 100.186 251.883 115.679C227.071 152.695 212.871 192 207.985 236.953C206.839 247.257 206.916 275.19 207.985 286.944C211.496 323.12 222.643 358.686 240.202 389.825C245.165 398.602 258.907 419.437 262.571 423.635C265.625 427.146 270.969 430.046 274.481 430.046C277.611 430.046 282.421 427.527 284.33 424.856C285.169 423.635 286.085 421.269 286.391 419.59C287.002 415.621 285.322 412.034 278.298 402.57C258.372 375.705 243.485 341.666 236.767 307.703C229.056 268.932 230.659 231.916 241.653 194.748C253.639 154.374 277.764 115.45 308.454 86.9823C312.882 82.9373 317.387 78.816 318.532 77.9764C319.754 77.0606 321.28 75.7631 322.044 75.0762C322.807 74.3893 326.243 71.7944 329.678 69.3521C333.114 66.9099 336.626 64.2386 337.389 63.5517C338.229 62.7885 339.221 62.1779 339.603 62.1779C339.909 62.1779 341.359 61.3384 342.733 60.2699C344.108 59.2014 345.482 58.3619 345.711 58.3619C346.016 58.3619 348.23 57.0644 350.673 55.4617C358.537 50.3482 377.241 41.4949 388.998 37.3736C397.244 34.4734 397.931 34.2444 404.267 32.4127C407.397 31.4968 410.833 30.4283 411.902 30.1231C424.88 25.9254 461.526 21.804 476.642 22.7962C481.147 23.1015 486.873 23.4831 489.392 23.6358C491.911 23.8647 495.729 24.17 497.79 24.4753C499.928 24.7042 502.676 25.0859 503.897 25.2385C513.822 26.4596 529.091 29.8941 540.161 33.3285C557.11 38.671 580.929 48.8981 589.556 54.6985C591.312 55.8433 592.916 56.8355 593.145 56.8355C593.832 56.8355 605.971 64.8492 611.544 68.9705C622.308 76.9843 624.446 78.7396 630.935 84.6927C672.314 122.624 697.966 171.775 706.288 228.863C708.044 240.922 708.349 245.12 708.349 262.139C708.349 282.441 707.051 296.56 703.463 313.962C701.707 322.586 701.631 326.936 703.158 330.6C704.761 334.339 706.364 336.018 709.571 337.392C713.159 338.919 715.449 338.766 718.961 336.782C723.771 334.034 725.374 330.371 728.351 315.641C732.321 296.026 733.467 283.051 733.467 260.995C733.467 239.625 732.321 227.642 728.657 209.249C716.823 150.558 683.69 95.454 637.959 58.6672C636.967 57.904 635.821 56.8355 635.287 56.4539C630.172 52.0272 611.544 39.2816 602.001 33.6338C598.794 31.7258 580.319 22.5673 574.516 19.9723C566.195 16.2326 544.208 8.82944 534.817 6.61613C514.509 1.73157 509.547 1.04468 489.697 0.739399C480.307 0.663078 470.535 0.357793 468.015 0.128829C465.496 -0.100134 461.45 -0.0238129 459.007 0.357793Z" fill="white"/>
<path d="M452.746 78.2055C422.514 81.182 398.083 89.9589 373.424 106.521C348.994 122.853 329.068 145.292 315.02 172.233C299.904 201.159 292.88 234.511 295.094 266.566C296.087 280.457 296.85 285.112 300.057 297.629C305.248 317.701 312.806 334.492 324.487 352.122C331.663 363.036 336.015 367.386 339.68 367.615C344.26 367.768 346.551 367.31 349.223 365.555C350.673 364.562 352.047 363.876 352.353 364.028C352.964 364.41 353.727 430.351 354.414 543.536C354.796 613.751 354.72 630.771 353.956 630.771C353.422 630.771 349.146 627.87 344.413 624.36C335.175 617.338 333.114 616.117 323.342 611.232C314.486 606.958 305.172 603.829 292.422 601.005C285.322 599.403 258.296 599.174 247.302 600.548C235.621 602.074 228.979 603.142 223.559 604.593C203.786 609.63 195.464 612.912 182.485 620.696C157.597 635.655 139.274 662.749 131.869 695.644C124.998 726.172 126.677 743.192 141.794 796.006C149.046 821.497 152.482 833.403 156.834 848.286C158.131 852.713 159.811 858.666 160.651 861.642C161.414 864.542 165.155 877.822 168.972 891.026C181.111 933.308 213.558 1047.33 217.986 1063.51C219.36 1068.32 221.574 1076.26 222.948 1081.07C224.399 1085.87 227.147 1095.49 229.132 1102.44C231.117 1109.38 233.713 1117.01 234.934 1119.46C236.08 1121.82 242.034 1129.91 247.989 1137.39C254.021 1144.79 265.396 1158.99 273.336 1168.83C281.276 1178.68 297.995 1199.44 310.516 1215.01C322.96 1230.5 337.542 1248.59 342.81 1255.08C348.078 1261.57 357.697 1273.39 364.11 1281.41C370.599 1289.35 379.913 1300.87 384.799 1306.98C389.762 1313.08 395.411 1320.41 397.32 1323.39C400.297 1327.89 407.321 1342.47 418.009 1366.13C419.384 1369.03 422.132 1375.05 424.117 1379.48C426.178 1383.91 432.439 1397.65 438.088 1410.01C443.738 1422.37 451.525 1439.47 455.418 1447.94L462.595 1463.43H500.462C526.343 1463.43 538.558 1463.21 539.169 1462.6C539.627 1462.14 542.91 1461.91 547.872 1462.06C552.224 1462.21 586.884 1462.06 624.904 1461.76C778.51 1460.61 805.689 1460.38 846.304 1460.38C900.967 1460.38 936.849 1459.62 938.3 1458.55C939.063 1458.02 941.888 1446.87 946.316 1427.18C954.256 1391.69 959.906 1366.43 965.86 1339.95C968.151 1329.57 971.052 1316.59 972.273 1311.17C973.495 1305.68 976.701 1291.25 979.45 1279.12C997.315 1199.67 1002.05 1178.3 1005.1 1164.64C1006.32 1159.14 1011.29 1137.01 1016.17 1115.41C1032.28 1043.67 1033.43 1037.87 1034.8 1019.63C1037.4 985.13 1037.55 973.3 1036.02 917.738C1035.87 910.793 1035.33 882.325 1034.88 854.392C1034.49 826.458 1033.96 793.869 1033.73 781.887C1033.5 769.904 1033.2 735.941 1032.97 706.329C1032.66 676.716 1032.2 649.011 1031.75 644.737C1030.52 631.992 1024.26 611.767 1017.16 597.647C1003.12 569.79 984.183 551.702 956.623 539.949C952.653 538.269 945.247 536.056 938.376 534.606C932.116 533.309 928.299 533.003 916.236 533.08C908.22 533.08 900.891 533.156 899.975 533.08C898.677 533.08 897.379 531.324 893.638 524.074C891.042 519.189 886.996 512.397 884.629 509.115C879.362 501.788 867.757 489.424 861.726 484.921C859.359 483.089 857.222 481.334 856.993 481.105C855.847 479.731 843.938 472.557 837.754 469.504C822.332 462.025 811.262 458.895 792.481 456.682C785.305 455.843 777.289 455.995 761.103 457.216L754.843 457.674L754.309 455.156C753.087 449.355 748.201 435.999 744.308 427.833C737.818 414.248 731.558 405.318 720.641 394.099C713.082 386.314 710.563 384.177 701.631 378.148C688.805 369.523 677.048 364.334 661.931 360.594C646.968 356.93 642.845 356.625 612.689 357.083L607.727 357.159L607.192 328.539C606.505 290.607 603.986 270.687 596.962 249.394C584.518 211.691 559.553 187.421 521.839 176.354C506.035 171.775 500.615 171.012 481.376 171.012C469.313 170.936 461.831 171.241 458.472 171.928C455.724 172.538 451.83 173.302 449.693 173.76C445.341 174.599 431.141 179.178 427.171 181.01C405.565 190.779 389.533 203.296 376.401 220.85C368.385 231.458 360.216 248.478 357.01 261.147C353.193 276.03 352.887 280.609 353.116 310.603C353.193 326.097 353.345 340.903 353.422 343.345C353.498 346.093 353.193 348.001 352.658 348.153C351.513 348.535 341.817 333.576 336.397 322.967C317.081 285.265 314.028 246.494 327.235 206.807C337.924 174.828 357.392 148.421 384.57 129.112C387.395 127.127 389.838 125.525 390.144 125.525C390.449 125.525 392.052 124.532 393.808 123.388C395.564 122.166 398.923 120.335 401.214 119.266C410.375 114.916 415.795 112.55 416.712 112.55C417.246 112.55 418.009 112.245 418.468 111.939C419.307 111.1 428.24 108.352 434.805 106.902C439.691 105.757 440.913 105.528 449.311 104.002C456.258 102.781 478.627 102.399 486.644 103.391C499.698 104.918 514.967 108.429 522.984 111.71C523.823 112.092 525.35 112.703 526.419 113.084C537.947 117.664 557.492 129.112 565.431 135.981C577.112 145.979 580.319 149.184 587.877 158.419C597.573 170.096 607.268 187.039 612.613 201.464C619.636 220.621 621.469 231.382 621.469 253.363C621.469 268.398 621.24 271.603 619.255 283.586C616.659 299.079 616.888 300.987 622.079 305.185C627.653 309.611 636.432 307.627 640.02 301.063C645.212 291.676 647.808 256.11 645.059 232.374C641.395 200.625 628.034 168.417 608.337 143.613C602.459 136.286 590.091 123.846 582.533 117.74C576.501 112.855 564.363 104.155 563.599 104.155C563.37 104.155 561.003 102.857 558.408 101.254C554.132 98.7359 545.582 94.6145 537.107 90.9511C528.404 87.1351 511.379 82.4031 500.08 80.4951C497.179 80.0372 493.056 79.3503 491.072 78.8924C485.956 77.9002 460.152 77.4423 452.746 78.2055ZM490.919 245.349C499.164 246.494 502.142 247.181 506.646 249.394C517.869 254.889 527.259 269.543 530.771 287.02C532.069 293.431 532.145 306.253 532.527 523.692L532.909 753.571L534.512 755.708C535.352 756.853 538.1 758.838 540.619 760.059C544.666 762.119 545.811 762.348 553.14 762.348C562.53 762.425 567.111 761.356 571.081 757.998C576.425 753.648 576.043 764.18 576.043 618.788C576.043 545.138 576.349 483.166 576.807 478.434C578.486 457.369 588.869 442.486 606.734 435.312C616.812 431.191 632.768 429.97 642.082 432.488C661.855 437.831 673.23 447.371 678.88 463.322L681.018 469.351L681.476 602.532C681.781 681.83 682.315 736.781 682.697 738.384C684.377 744.566 687.889 748.687 693.538 751.053C697.279 752.656 710.563 752.656 714.228 751.129C719.037 749.068 722.931 745.634 724.916 741.742L726.825 738.002V654.812C726.901 579.636 726.977 571.088 728.122 566.432C731.405 553.381 741.025 541.78 753.164 536.285C763.012 531.858 765.913 531.248 777.976 531.172C785.228 531.172 790.802 531.553 793.245 532.164C811.186 537.048 824.47 548.344 829.203 562.845C830.501 566.814 830.654 573.759 831.112 675.037C831.417 757.616 831.799 783.718 832.486 786.008C833.86 790.129 839.357 795.777 843.174 796.922C844.854 797.456 848.289 797.914 850.809 797.914C858.443 797.914 863.635 794.785 866.612 788.45L868.444 784.558V726.172C868.444 694.041 868.826 663.131 869.208 657.483C871.498 625.81 883.408 611.156 909.365 607.874C924.1 606.043 936.697 611.309 945.705 623.139C951.202 630.389 956.165 644.127 957.692 656.338C958.15 660.689 958.608 693.659 958.913 745.634C959.066 790.969 959.447 828.9 959.6 829.969C960.364 834.701 961.738 943.84 961.432 976.124C960.974 1016.12 960.669 1019.4 955.401 1043.13C953.722 1050.77 951.355 1061.45 950.133 1066.95C948.912 1072.36 945.324 1088.55 942.117 1102.82C938.911 1117.09 934.941 1134.8 933.338 1142.12C931.734 1149.45 929.139 1160.82 927.688 1167.31C920.741 1198.07 908.067 1254.93 901.196 1285.99C897.074 1304.84 892.798 1323.92 891.73 1328.35C888.294 1343.46 884.553 1360.02 883.026 1367.65C880.965 1377.88 879.438 1384.06 878.827 1384.59C878.064 1385.36 874.399 1385.43 760.035 1386.43C698.959 1386.88 642.234 1387.42 634.066 1387.57C625.897 1387.65 594.824 1387.8 565.05 1387.88C520.922 1387.95 510.769 1387.8 510.005 1386.96C509.547 1386.43 507.867 1383.22 506.417 1379.86C504.05 1374.6 492.446 1349.26 485.346 1333.69C463.893 1286.75 462.595 1284.31 451.983 1271.11C449.082 1267.52 443.203 1260.27 438.852 1254.93C429.232 1242.94 417.399 1228.37 408.772 1217.68C405.184 1213.25 397.854 1204.17 392.434 1197.46C375.256 1176.24 369.072 1168.53 366.629 1165.4C365.255 1163.8 361.743 1159.45 358.842 1155.86C355.865 1152.27 348.994 1143.88 343.573 1137.16C338.153 1130.45 330.213 1120.68 326.014 1115.41C307.615 1092.74 304.866 1089.16 303.187 1085.8C301.66 1082.67 207.908 756.472 204.549 742.352C202.87 735.483 202.946 720.83 204.625 712.892C207.908 697.094 214.856 687.401 226.918 681.524C237.912 676.105 266.312 671.984 276.695 674.274C292.193 677.708 305.401 685.493 313.112 695.72C317.158 701.062 318.379 703.581 323.571 717.014C334.183 744.566 345.024 772.881 350.826 787.992C354.261 796.998 357.85 806.462 358.842 808.981C359.835 811.499 364.797 824.55 369.912 837.983C374.951 851.415 379.455 863.245 379.913 864.313C380.371 865.382 383.12 872.403 385.945 880.036C393.274 899.574 393.197 899.421 399.61 902.55C403.657 904.458 413.429 904.764 417.399 903.161C424.728 900.261 428.011 896.139 429.767 887.82C430.835 882.707 430.835 886.218 428.698 491.485C428.163 400.357 427.858 315.87 428.087 303.735L428.392 281.601L430.835 275.343C434.5 266.184 440.149 259.316 448.166 254.202C452.517 251.378 458.778 248.402 460.228 248.402C460.763 248.402 461.526 248.096 461.984 247.791C462.748 247.028 469.695 245.501 473.741 245.12C479.162 244.586 485.727 244.662 490.919 245.349Z" fill="white"/>
<path d="M452.517 519.342C445.265 523.768 444.959 535.827 452.136 540.483C454.044 541.704 456.335 541.857 478.322 541.857C501.149 541.857 502.523 541.78 505.043 540.33C512.295 536.056 512.219 523.845 504.89 519.342C502.523 517.892 500.996 517.815 478.704 517.815C456.411 517.815 454.884 517.892 452.517 519.342Z" fill="white"/>
<path d="M453.586 549.565C449.54 551.626 447.555 554.984 447.555 560.021C447.479 564.829 449.234 568.493 452.594 570.477C454.884 571.927 456.564 572.003 478.933 572.003C502.371 572.003 502.829 572.003 505.424 570.248C508.783 568.111 510.616 564.371 510.463 559.639C510.387 554.22 508.096 550.786 503.516 548.954C502.447 548.496 492.14 548.115 479.162 548.038C457.938 547.962 456.564 548.038 453.586 549.565Z" fill="white"/>
<path d="M57.7841 1745H11.3778V1614.09H58.1676C71.3352 1614.09 82.6705 1616.71 92.1733 1621.95C101.676 1627.15 108.984 1634.63 114.098 1644.39C119.254 1654.15 121.832 1665.82 121.832 1679.42C121.832 1693.05 119.254 1704.77 114.098 1714.57C108.984 1724.37 101.634 1731.9 92.0455 1737.14C82.5 1742.38 71.0795 1745 57.7841 1745ZM39.0554 1721.29H56.6335C64.8153 1721.29 71.6974 1719.84 77.2798 1716.94C82.9048 1714 87.1236 1709.46 89.9361 1703.32C92.7912 1697.14 94.2188 1689.18 94.2188 1679.42C94.2188 1669.74 92.7912 1661.84 89.9361 1655.7C87.1236 1649.57 82.9261 1645.05 77.3438 1642.15C71.7614 1639.25 64.8793 1637.81 56.6974 1637.81H39.0554V1721.29ZM262.633 1679.55C262.633 1693.82 259.927 1705.97 254.515 1715.98C249.146 1725.99 241.816 1733.64 232.527 1738.93C223.279 1744.17 212.882 1746.79 201.333 1746.79C189.7 1746.79 179.26 1744.15 170.012 1738.86C160.765 1733.58 153.457 1725.93 148.088 1715.92C142.718 1705.9 140.034 1693.78 140.034 1679.55C140.034 1665.27 142.718 1653.12 148.088 1643.11C153.457 1633.1 160.765 1625.47 170.012 1620.23C179.26 1614.94 189.7 1612.3 201.333 1612.3C212.882 1612.3 223.279 1614.94 232.527 1620.23C241.816 1625.47 249.146 1633.1 254.515 1643.11C259.927 1653.12 262.633 1665.27 262.633 1679.55ZM234.572 1679.55C234.572 1670.3 233.187 1662.5 230.417 1656.15C227.69 1649.8 223.833 1644.99 218.848 1641.7C213.862 1638.42 208.024 1636.78 201.333 1636.78C194.643 1636.78 188.805 1638.42 183.819 1641.7C178.833 1644.99 174.956 1649.8 172.186 1656.15C169.458 1662.5 168.095 1670.3 168.095 1679.55C168.095 1688.79 169.458 1696.59 172.186 1702.94C174.956 1709.29 178.833 1714.11 183.819 1717.39C188.805 1720.67 194.643 1722.31 201.333 1722.31C208.024 1722.31 213.862 1720.67 218.848 1717.39C223.833 1714.11 227.69 1709.29 230.417 1702.94C233.187 1696.59 234.572 1688.79 234.572 1679.55ZM363.995 1614.09H391.673V1699.11C391.673 1708.65 389.393 1717 384.833 1724.16C380.316 1731.32 373.988 1736.9 365.849 1740.91C357.71 1744.87 348.228 1746.85 337.404 1746.85C326.538 1746.85 317.035 1744.87 308.896 1740.91C300.756 1736.9 294.428 1731.32 289.911 1724.16C285.394 1717 283.136 1708.65 283.136 1699.11V1614.09H310.813V1696.74C310.813 1701.73 311.9 1706.16 314.073 1710.04C316.289 1713.91 319.4 1716.96 323.406 1719.18C327.411 1721.39 332.077 1722.5 337.404 1722.5C342.773 1722.5 347.44 1721.39 351.403 1719.18C355.408 1716.96 358.498 1713.91 360.671 1710.04C362.887 1706.16 363.995 1701.73 363.995 1696.74V1614.09ZM414.444 1745V1614.09H466.859C476.49 1614.09 484.522 1615.52 490.957 1618.37C497.392 1621.23 502.228 1625.19 505.467 1630.26C508.706 1635.29 510.325 1641.09 510.325 1647.65C510.325 1652.76 509.302 1657.26 507.257 1661.14C505.211 1664.97 502.399 1668.12 498.819 1670.6C495.282 1673.03 491.234 1674.75 486.674 1675.77V1677.05C491.66 1677.27 496.326 1678.67 500.673 1681.27C505.062 1683.87 508.62 1687.51 511.348 1692.2C514.075 1696.85 515.439 1702.39 515.439 1708.82C515.439 1715.77 513.713 1721.97 510.261 1727.42C506.852 1732.83 501.802 1737.12 495.112 1740.27C488.422 1743.42 480.176 1745 470.375 1745H414.444ZM442.122 1722.37H464.686C472.399 1722.37 478.024 1720.9 481.561 1717.96C485.098 1714.98 486.866 1711.02 486.866 1706.07C486.866 1702.45 485.993 1699.25 484.245 1696.48C482.498 1693.71 480.005 1691.54 476.767 1689.96C473.571 1688.39 469.757 1687.6 465.325 1687.6H442.122V1722.37ZM442.122 1668.87H462.64C466.433 1668.87 469.799 1668.21 472.74 1666.89C475.723 1665.53 478.066 1663.61 479.771 1661.14C481.518 1658.66 482.392 1655.7 482.392 1652.25C482.392 1647.52 480.708 1643.71 477.342 1640.81C474.018 1637.91 469.288 1636.46 463.152 1636.46H442.122V1668.87ZM533.448 1745V1614.09H561.126V1722.18H617.248V1745H533.448ZM635.577 1745V1614.09H723.787V1636.91H663.255V1668.1H719.249V1690.92H663.255V1722.18H724.043V1745H635.577ZM902.956 1659.92H874.959C874.448 1656.3 873.404 1653.08 871.827 1650.27C870.25 1647.41 868.226 1644.99 865.755 1642.98C863.283 1640.98 860.428 1639.45 857.189 1638.38C853.993 1637.32 850.52 1636.78 846.77 1636.78C839.995 1636.78 834.093 1638.47 829.064 1641.83C824.036 1645.16 820.137 1650.01 817.367 1656.41C814.597 1662.76 813.212 1670.47 813.212 1679.55C813.212 1688.88 814.597 1696.72 817.367 1703.07C820.179 1709.42 824.1 1714.21 829.128 1717.45C834.157 1720.69 839.973 1722.31 846.578 1722.31C850.286 1722.31 853.716 1721.82 856.87 1720.84C860.066 1719.86 862.9 1718.43 865.371 1716.56C867.843 1714.64 869.888 1712.32 871.507 1709.59C873.169 1706.86 874.32 1703.75 874.959 1700.26L902.956 1700.38C902.232 1706.39 900.421 1712.19 897.523 1717.77C894.668 1723.31 890.811 1728.27 885.953 1732.66C881.138 1737.01 875.385 1740.46 868.695 1743.02C862.047 1745.53 854.526 1746.79 846.131 1746.79C834.455 1746.79 824.015 1744.15 814.81 1738.86C805.648 1733.58 798.404 1725.93 793.077 1715.92C787.793 1705.9 785.151 1693.78 785.151 1679.55C785.151 1665.27 787.836 1653.12 793.205 1643.11C798.574 1633.1 805.861 1625.47 815.066 1620.23C824.27 1614.94 834.625 1612.3 846.131 1612.3C853.716 1612.3 860.748 1613.37 867.225 1615.5C873.745 1617.63 879.519 1620.74 884.547 1624.83C889.576 1628.88 893.667 1633.84 896.82 1639.72C900.016 1645.6 902.061 1652.34 902.956 1659.92ZM922.804 1745V1614.09H950.481V1722.18H1006.6V1745H922.804ZM1052.61 1614.09V1745H1024.93V1614.09H1052.61ZM1190.89 1659.92H1162.89C1162.38 1656.3 1161.33 1653.08 1159.76 1650.27C1158.18 1647.41 1156.16 1644.99 1153.68 1642.98C1151.21 1640.98 1148.36 1639.45 1145.12 1638.38C1141.92 1637.32 1138.45 1636.78 1134.7 1636.78C1127.92 1636.78 1122.02 1638.47 1116.99 1641.83C1111.97 1645.16 1108.07 1650.01 1105.3 1656.41C1102.53 1662.76 1101.14 1670.47 1101.14 1679.55C1101.14 1688.88 1102.53 1696.72 1105.3 1703.07C1108.11 1709.42 1112.03 1714.21 1117.06 1717.45C1122.09 1720.69 1127.9 1722.31 1134.51 1722.31C1138.22 1722.31 1141.65 1721.82 1144.8 1720.84C1148 1719.86 1150.83 1718.43 1153.3 1716.56C1155.77 1714.64 1157.82 1712.32 1159.44 1709.59C1161.1 1706.86 1162.25 1703.75 1162.89 1700.26L1190.89 1700.38C1190.16 1706.39 1188.35 1712.19 1185.45 1717.77C1182.6 1723.31 1178.74 1728.27 1173.88 1732.66C1169.07 1737.01 1163.31 1740.46 1156.62 1743.02C1149.98 1745.53 1142.46 1746.79 1134.06 1746.79C1122.38 1746.79 1111.94 1744.15 1102.74 1738.86C1093.58 1733.58 1086.33 1725.93 1081.01 1715.92C1075.72 1705.9 1073.08 1693.78 1073.08 1679.55C1073.08 1665.27 1075.77 1653.12 1081.13 1643.11C1086.5 1633.1 1093.79 1625.47 1103 1620.23C1112.2 1614.94 1122.56 1612.3 1134.06 1612.3C1141.65 1612.3 1148.68 1613.37 1155.15 1615.5C1161.67 1617.63 1167.45 1620.74 1172.48 1624.83C1177.51 1628.88 1181.6 1633.84 1184.75 1639.72C1187.95 1645.6 1189.99 1652.34 1190.89 1659.92ZM1210.73 1745V1614.09H1238.41V1671.81H1240.14L1287.25 1614.09H1320.42L1271.84 1672.71L1321 1745H1287.89L1252.03 1691.18L1238.41 1707.8V1745H1210.73Z" fill="white"/>
</svg>
