<svg width="1550" height="2398" viewBox="0 0 1550 2398" fill="none" xmlns="http://www.w3.org/2000/svg">
<path d="M464.875 0.502461C461.444 0.931211 451.901 1.35996 443.645 1.35996C435.389 1.46715 428.312 1.68152 427.883 2.00309C427.347 2.32465 422.844 3.07496 417.912 3.71809C406.439 5.11152 380.706 11.2212 372.45 14.544C371.271 14.9728 368.376 15.9375 366.017 16.6878C358.94 18.8315 339.641 26.2275 333.315 29.1215C285.065 51.5237 256.008 71.3534 221.162 106.082C199.718 127.412 188.567 140.704 173.985 162.463C139.138 214.449 119.195 269.65 112.333 332.784C110.724 347.254 110.831 386.485 112.333 402.992C117.265 453.798 132.919 503.748 157.58 547.48C164.549 559.807 183.849 589.069 188.995 594.964C193.284 599.895 200.79 603.968 205.722 603.968C210.118 603.968 216.873 600.431 219.553 596.679C220.733 594.964 222.019 591.642 222.448 589.283C223.306 583.71 220.947 578.672 211.083 565.381C183.098 527.651 162.19 479.845 152.755 432.147C141.925 377.695 144.177 325.709 159.617 273.509C176.451 216.807 210.332 162.141 253.435 122.16C259.654 116.479 265.98 110.691 267.588 109.512C269.304 108.226 271.448 106.404 272.52 105.439C273.593 104.474 278.418 100.83 283.243 97.4C288.067 93.97 293 90.2184 294.072 89.2537C295.251 88.1818 296.645 87.3243 297.181 87.3243C297.61 87.3243 299.647 86.1453 301.577 84.6447C303.507 83.144 305.437 81.965 305.759 81.965C306.188 81.965 309.297 80.1428 312.728 77.8918C323.772 70.7103 350.041 58.2765 366.553 52.4884C378.133 48.4153 379.098 48.0937 387.997 45.5212C392.393 44.235 397.218 42.7343 398.719 42.3056C416.947 36.4103 468.413 30.6222 489.643 32.0156C495.969 32.4443 504.01 32.9803 507.548 33.1947C511.087 33.5162 516.448 33.945 519.343 34.3737C522.345 34.6953 526.205 35.2312 527.92 35.4456C541.859 37.1606 563.303 41.984 578.85 46.8075C602.653 54.3106 636.106 68.6737 648.222 76.82C650.688 78.4278 652.94 79.8212 653.262 79.8212C654.227 79.8212 671.275 91.0759 679.102 96.864C694.22 108.119 697.222 110.584 706.336 118.945C764.45 172.217 800.476 241.246 812.163 321.422C814.629 338.357 815.058 344.253 815.058 368.156C815.058 396.667 813.235 416.497 808.196 440.936C805.73 453.048 805.622 459.158 807.767 464.303C810.018 469.555 812.27 471.913 816.773 473.843C821.813 475.986 825.029 475.772 829.962 472.985C836.716 469.126 838.968 463.981 843.15 443.294C848.725 415.747 850.333 397.525 850.333 366.548C850.333 336.535 848.725 319.707 843.579 293.875C826.959 211.447 780.425 134.058 716.2 82.3937C714.806 81.3218 713.198 79.8212 712.447 79.2853C705.264 73.0684 679.102 55.1681 665.699 47.2362C661.196 44.5565 635.249 31.694 627.1 28.0497C615.413 22.7975 584.533 12.4003 571.345 9.29184C542.824 2.43184 535.855 1.46715 507.977 1.0384C494.789 0.931211 481.065 0.502461 477.527 0.180898C473.988 -0.140664 468.306 -0.0334766 464.875 0.502461Z" fill="white"/>
<path d="M456.083 109.834C413.623 114.014 379.312 126.341 344.68 149.6C310.369 172.539 282.385 204.052 262.656 241.889C241.426 282.513 231.562 329.354 234.672 374.373C236.065 393.881 237.138 400.419 241.641 417.998C248.932 446.188 259.547 469.769 275.952 494.53C286.03 509.858 292.142 515.967 297.288 516.289C303.722 516.503 306.938 515.86 310.691 513.395C312.728 512.001 314.658 511.037 315.087 511.251C315.945 511.787 317.017 604.397 317.982 763.356C318.518 861.968 318.411 885.871 317.339 885.871C316.588 885.871 310.584 881.798 303.936 876.868C290.962 867.006 288.067 865.291 274.343 858.431C261.906 852.429 248.825 848.034 230.919 844.068C220.947 841.817 182.991 841.496 167.551 843.425C151.146 845.569 141.818 847.069 134.206 849.106C106.435 856.18 94.7483 860.789 76.5208 871.723C41.5668 892.731 15.8338 930.783 5.43339 976.981C-4.21649 1019.86 -1.85763 1043.76 19.3721 1117.93C29.5581 1153.73 34.383 1170.45 40.4946 1191.36C42.3173 1197.57 44.6762 1205.93 45.8556 1210.11C46.9278 1214.19 52.1817 1232.84 57.5427 1251.38C74.5908 1310.76 120.16 1470.9 126.378 1493.62C128.308 1500.38 131.418 1511.52 133.348 1518.28C135.385 1525.03 139.245 1538.54 142.033 1548.29C144.82 1558.04 148.466 1568.76 150.181 1572.19C151.79 1575.52 160.153 1586.88 168.516 1597.38C176.987 1607.78 192.963 1627.72 204.114 1641.54C215.265 1655.37 238.746 1684.53 256.33 1706.39C273.807 1728.15 294.286 1753.55 301.685 1762.67C309.083 1771.78 322.593 1788.39 331.599 1799.64C340.713 1810.79 353.794 1826.98 360.656 1835.55C367.625 1844.13 375.56 1854.42 378.24 1858.6C382.422 1864.92 392.286 1885.39 407.297 1918.62C409.227 1922.7 413.087 1931.16 415.875 1937.38C418.77 1943.6 427.562 1962.89 435.496 1980.26C443.43 1997.62 454.367 2021.63 459.835 2033.53L469.914 2055.29H523.096C559.443 2055.29 576.599 2054.97 577.457 2054.11C578.1 2053.46 582.71 2053.14 589.68 2053.36C595.791 2053.57 644.47 2053.36 697.866 2052.93C913.594 2051.32 951.764 2051 1008.81 2051C1085.58 2051 1135.97 2049.93 1138.01 2048.43C1139.08 2047.68 1143.05 2032.03 1149.27 2004.37C1160.42 1954.53 1168.35 1919.05 1176.71 1881.86C1179.93 1867.28 1184 1849.06 1185.72 1841.45C1187.44 1833.73 1191.94 1813.47 1195.8 1796.43C1220.89 1684.85 1227.54 1654.83 1231.83 1635.65C1233.54 1627.93 1240.51 1596.85 1247.37 1566.51C1270 1465.76 1271.6 1457.61 1273.53 1431.99C1277.18 1383.54 1277.39 1366.93 1275.25 1288.9C1275.04 1279.14 1274.28 1239.16 1273.64 1199.93C1273.11 1160.7 1272.35 1114.93 1272.03 1098.1C1271.71 1081.27 1271.28 1033.58 1270.96 991.987C1270.53 950.398 1269.89 911.489 1269.25 905.487C1267.53 887.586 1258.74 859.182 1248.77 839.352C1229.04 800.228 1202.45 774.825 1163.74 758.318C1158.16 755.96 1147.76 752.852 1138.11 750.815C1129.32 748.993 1123.96 748.564 1107.02 748.671C1095.76 748.671 1085.47 748.778 1084.18 748.671C1082.36 748.671 1080.54 746.206 1075.28 736.023C1071.64 729.163 1065.95 719.623 1062.63 715.014C1055.23 704.724 1038.93 687.36 1030.46 681.036C1027.14 678.463 1024.14 675.998 1023.82 675.677C1022.21 673.747 1005.48 663.672 996.797 659.384C975.139 648.88 959.592 644.485 933.215 641.377C923.136 640.198 911.878 640.412 889.147 642.127L880.355 642.77L879.605 639.233C877.889 631.087 871.027 612.329 865.559 600.86C856.445 581.78 847.653 569.239 832.32 553.483C821.706 542.55 818.167 539.549 805.622 531.081C787.609 518.969 771.097 511.68 749.868 506.428C728.852 501.283 723.062 500.854 680.71 501.497L673.741 501.604L672.99 461.409C672.025 408.137 668.487 380.161 658.623 350.255C641.146 297.305 606.084 263.219 553.117 247.677C530.923 241.246 523.31 240.174 496.29 240.174C479.349 240.067 468.842 240.495 464.124 241.46C460.264 242.318 454.796 243.389 451.794 244.033C445.682 245.212 425.739 251.643 420.164 254.215C389.82 267.935 367.304 285.514 348.862 310.167C337.604 325.066 326.131 348.969 321.628 366.762C316.267 387.664 315.838 394.095 316.159 436.22C316.267 457.979 316.481 478.773 316.588 482.203C316.695 486.062 316.267 488.742 315.516 488.956C313.908 489.492 300.291 468.483 292.678 453.584C265.551 400.634 261.262 346.182 279.811 290.445C294.822 245.533 322.164 208.446 360.334 181.328C364.302 178.541 367.733 176.29 368.161 176.29C368.59 176.29 370.842 174.897 373.308 173.289C375.774 171.574 380.492 169.001 383.708 167.501C396.575 161.391 404.188 158.068 405.474 158.068C406.225 158.068 407.297 157.639 407.94 157.211C409.12 156.032 421.665 152.173 430.886 150.136C437.748 148.529 439.463 148.207 451.258 146.063C461.015 144.348 492.43 143.812 503.689 145.206C522.023 147.349 543.468 152.28 554.726 156.889C555.905 157.425 558.05 158.283 559.551 158.819C575.741 165.25 603.19 181.328 614.34 190.975C630.745 205.016 635.249 209.518 645.863 222.488C659.48 238.888 673.097 262.683 680.603 282.942C690.467 309.846 693.041 324.959 693.041 355.829C693.041 376.945 692.719 381.447 689.931 398.275C686.286 420.034 686.607 422.714 693.898 428.609C701.725 434.826 714.056 432.039 719.095 422.821C726.386 409.637 730.032 359.688 726.172 326.353C721.025 281.763 702.262 236.529 674.599 201.694C666.343 191.404 648.973 173.932 638.358 165.357C629.887 158.497 612.839 146.278 611.767 146.278C611.446 146.278 608.122 144.455 604.476 142.204C598.472 138.667 586.463 132.879 574.562 127.734C562.338 122.375 538.428 115.729 522.559 113.049C518.485 112.406 512.695 111.442 509.907 110.799C502.724 109.405 466.483 108.762 456.083 109.834ZM509.693 344.574C521.273 346.182 525.454 347.147 531.78 350.255C547.542 357.973 560.73 378.553 565.662 403.099C567.485 412.103 567.592 430.11 568.128 735.487L568.664 1058.34L570.916 1061.34C572.095 1062.95 575.955 1065.73 579.494 1067.45C585.176 1070.34 586.785 1070.66 597.078 1070.66C610.266 1070.77 616.699 1069.27 622.275 1064.55C629.78 1058.44 629.244 1073.24 629.244 869.043C629.244 765.607 629.673 678.571 630.316 671.925C632.675 642.341 647.257 621.44 672.347 611.364C686.5 605.576 708.909 603.861 721.99 607.398C749.76 614.901 765.736 628.3 773.671 650.702L776.673 659.17L777.316 846.212C777.745 957.58 778.496 1034.75 779.032 1037.01C781.391 1045.69 786.323 1051.48 794.257 1054.8C799.511 1057.05 818.167 1057.05 823.314 1054.91C830.069 1052.01 835.537 1047.19 838.325 1041.72L841.005 1036.47V919.635C841.113 814.056 841.22 802.051 842.828 795.512C847.439 777.183 860.948 760.891 877.996 753.173C891.828 746.956 895.902 746.099 912.843 745.992C923.029 745.992 930.856 746.528 934.287 747.385C959.484 754.245 978.141 770.109 984.788 790.474C986.611 796.048 986.826 805.802 987.469 948.04C987.898 1064.02 988.434 1100.68 989.399 1103.89C991.329 1109.68 999.049 1117.61 1004.41 1119.22C1006.77 1119.97 1011.59 1120.61 1015.13 1120.61C1025.85 1120.61 1033.15 1116.22 1037.33 1107.32L1039.9 1101.85V1019.86C1039.9 974.73 1040.44 931.319 1040.97 923.387C1044.19 878.904 1060.92 858.324 1097.37 853.715C1118.06 851.143 1135.76 858.538 1148.41 875.153C1156.13 885.335 1163.1 904.629 1165.24 921.779C1165.88 927.889 1166.53 974.194 1166.96 1047.19C1167.17 1110.86 1167.71 1164.13 1167.92 1165.63C1168.99 1172.28 1170.92 1325.55 1170.49 1370.89C1169.85 1427.06 1169.42 1431.67 1162.02 1465.01C1159.67 1475.72 1156.34 1490.73 1154.63 1498.45C1152.91 1506.06 1147.87 1528.78 1143.37 1548.83C1138.86 1568.87 1133.29 1593.74 1131.04 1604.03C1128.79 1614.32 1125.14 1630.29 1123.1 1639.4C1113.35 1682.6 1095.55 1762.45 1085.9 1806.08C1080.11 1832.55 1074.1 1859.35 1072.6 1865.56C1067.78 1886.79 1062.52 1910.05 1060.38 1920.77C1057.48 1935.13 1055.34 1943.81 1054.48 1944.56C1053.41 1945.63 1048.26 1945.74 887.646 1947.13C801.87 1947.78 722.205 1948.53 710.732 1948.74C699.259 1948.85 655.62 1949.06 613.804 1949.17C551.831 1949.28 537.57 1949.06 536.498 1947.88C535.855 1947.13 533.496 1942.63 531.459 1937.92C528.135 1930.52 511.837 1894.93 501.866 1873.07C471.737 1807.15 469.914 1803.72 455.01 1785.17C450.936 1780.14 442.68 1769.95 436.568 1762.45C423.059 1745.62 406.439 1725.15 394.323 1710.14C389.284 1703.93 378.991 1691.17 371.378 1681.74C347.253 1651.94 338.569 1641.11 335.137 1636.72C333.207 1634.47 328.275 1628.36 324.201 1623.32C320.019 1618.28 310.369 1606.49 302.757 1597.06C295.144 1587.63 283.993 1573.91 278.096 1566.51C252.256 1534.68 248.396 1529.64 246.037 1524.92C243.893 1520.53 112.225 1062.41 107.508 1042.58C105.149 1032.93 105.256 1012.35 107.615 1001.21C112.225 979.017 121.982 965.404 138.923 957.151C154.363 949.541 194.249 943.753 208.831 946.968C230.597 951.792 249.146 962.725 259.976 977.088C265.658 984.591 267.374 988.128 274.665 1006.99C289.569 1045.69 304.794 1085.45 312.943 1106.68C317.768 1119.33 322.807 1132.62 324.201 1136.15C325.595 1139.69 332.564 1158.02 339.748 1176.89C346.825 1195.75 353.151 1212.36 353.794 1213.87C354.437 1215.37 358.297 1225.23 362.264 1235.95C372.558 1263.39 372.45 1263.17 381.457 1267.57C387.14 1270.25 400.864 1270.67 406.439 1268.42C416.732 1264.35 421.343 1258.56 423.809 1246.88C425.31 1239.7 425.31 1244.63 422.308 690.254C421.557 562.272 421.129 443.616 421.45 426.573L421.879 395.489L425.31 386.699C430.457 373.837 438.391 364.19 449.649 357.008C455.761 353.042 464.553 348.862 466.59 348.862C467.341 348.862 468.413 348.433 469.056 348.004C470.128 346.933 479.886 344.789 485.568 344.253C493.181 343.503 502.402 343.61 509.693 344.574Z" fill="white"/>
<path d="M455.761 729.377C445.575 735.594 445.146 752.53 455.225 759.068C457.905 760.783 461.122 760.998 492.001 760.998C524.061 760.998 525.99 760.891 529.529 758.854C539.715 752.852 539.608 735.702 529.314 729.377C525.99 727.341 523.846 727.234 492.538 727.234C461.229 727.234 459.085 727.341 455.761 729.377Z" fill="white"/>
<path d="M457.262 771.824C451.579 774.718 448.792 779.434 448.792 786.508C448.684 793.261 451.15 798.406 455.868 801.193C459.085 803.23 461.444 803.337 492.859 803.337C525.776 803.337 526.419 803.337 530.065 800.871C534.783 797.87 537.356 792.618 537.141 785.972C537.034 778.362 533.818 773.539 527.384 770.966C525.883 770.323 511.408 769.787 493.181 769.68C463.374 769.573 461.444 769.68 457.262 771.824Z" fill="white"/>
<path d="M84.7841 2254H38.3778V2123.09H85.1676C98.3352 2123.09 109.67 2125.71 119.173 2130.95C128.676 2136.15 135.984 2143.63 141.098 2153.39C146.254 2163.15 148.832 2174.82 148.832 2188.42C148.832 2202.05 146.254 2213.77 141.098 2223.57C135.984 2233.37 128.634 2240.9 119.045 2246.14C109.5 2251.38 98.0795 2254 84.7841 2254ZM66.0554 2230.29H83.6335C91.8153 2230.29 98.6974 2228.84 104.28 2225.94C109.905 2223 114.124 2218.46 116.936 2212.32C119.791 2206.14 121.219 2198.18 121.219 2188.42C121.219 2178.74 119.791 2170.84 116.936 2164.7C114.124 2158.57 109.926 2154.05 104.344 2151.15C98.7614 2148.25 91.8793 2146.81 83.6974 2146.81H66.0554V2230.29ZM289.633 2188.55C289.633 2202.82 286.927 2214.97 281.515 2224.98C276.146 2234.99 268.816 2242.64 259.527 2247.93C250.279 2253.17 239.882 2255.79 228.333 2255.79C216.7 2255.79 206.26 2253.15 197.012 2247.86C187.765 2242.58 180.457 2234.93 175.088 2224.92C169.718 2214.9 167.034 2202.78 167.034 2188.55C167.034 2174.27 169.718 2162.12 175.088 2152.11C180.457 2142.1 187.765 2134.47 197.012 2129.23C206.26 2123.94 216.7 2121.3 228.333 2121.3C239.882 2121.3 250.279 2123.94 259.527 2129.23C268.816 2134.47 276.146 2142.1 281.515 2152.11C286.927 2162.12 289.633 2174.27 289.633 2188.55ZM261.572 2188.55C261.572 2179.3 260.187 2171.5 257.417 2165.15C254.69 2158.8 250.833 2153.99 245.848 2150.7C240.862 2147.42 235.024 2145.78 228.333 2145.78C221.643 2145.78 215.805 2147.42 210.819 2150.7C205.833 2153.99 201.956 2158.8 199.186 2165.15C196.458 2171.5 195.095 2179.3 195.095 2188.55C195.095 2197.79 196.458 2205.59 199.186 2211.94C201.956 2218.29 205.833 2223.11 210.819 2226.39C215.805 2229.67 221.643 2231.31 228.333 2231.31C235.024 2231.31 240.862 2229.67 245.848 2226.39C250.833 2223.11 254.69 2218.29 257.417 2211.94C260.187 2205.59 261.572 2197.79 261.572 2188.55ZM390.995 2123.09H418.673V2208.11C418.673 2217.65 416.393 2226 411.833 2233.16C407.316 2240.32 400.988 2245.9 392.849 2249.91C384.71 2253.87 375.228 2255.85 364.404 2255.85C353.538 2255.85 344.035 2253.87 335.896 2249.91C327.756 2245.9 321.428 2240.32 316.911 2233.16C312.394 2226 310.136 2217.65 310.136 2208.11V2123.09H337.813V2205.74C337.813 2210.73 338.9 2215.16 341.073 2219.04C343.289 2222.91 346.4 2225.96 350.406 2228.18C354.411 2230.39 359.077 2231.5 364.404 2231.5C369.773 2231.5 374.44 2230.39 378.403 2228.18C382.408 2225.96 385.498 2222.91 387.671 2219.04C389.887 2215.16 390.995 2210.73 390.995 2205.74V2123.09ZM441.444 2254V2123.09H493.859C503.49 2123.09 511.522 2124.52 517.957 2127.37C524.392 2130.23 529.228 2134.19 532.467 2139.26C535.706 2144.29 537.325 2150.09 537.325 2156.65C537.325 2161.76 536.302 2166.26 534.257 2170.14C532.211 2173.97 529.399 2177.12 525.819 2179.6C522.282 2182.03 518.234 2183.75 513.674 2184.77V2186.05C518.66 2186.27 523.326 2187.67 527.673 2190.27C532.062 2192.87 535.62 2196.51 538.348 2201.2C541.075 2205.85 542.439 2211.39 542.439 2217.82C542.439 2224.77 540.713 2230.97 537.261 2236.42C533.852 2241.83 528.802 2246.12 522.112 2249.27C515.422 2252.42 507.176 2254 497.375 2254H441.444ZM469.122 2231.37H491.686C499.399 2231.37 505.024 2229.9 508.561 2226.96C512.098 2223.98 513.866 2220.02 513.866 2215.07C513.866 2211.45 512.993 2208.25 511.245 2205.48C509.498 2202.71 507.005 2200.54 503.767 2198.96C500.571 2197.39 496.757 2196.6 492.325 2196.6H469.122V2231.37ZM469.122 2177.87H489.64C493.433 2177.87 496.799 2177.21 499.74 2175.89C502.723 2174.53 505.066 2172.61 506.771 2170.14C508.518 2167.66 509.392 2164.7 509.392 2161.25C509.392 2156.52 507.708 2152.71 504.342 2149.81C501.018 2146.91 496.288 2145.46 490.152 2145.46H469.122V2177.87ZM560.448 2254V2123.09H588.126V2231.18H644.248V2254H560.448ZM662.577 2254V2123.09H750.787V2145.91H690.255V2177.1H746.249V2199.92H690.255V2231.18H751.043V2254H662.577ZM929.956 2168.92H901.959C901.448 2165.3 900.404 2162.08 898.827 2159.27C897.25 2156.41 895.226 2153.99 892.755 2151.98C890.283 2149.98 887.428 2148.45 884.189 2147.38C880.993 2146.32 877.52 2145.78 873.77 2145.78C866.995 2145.78 861.093 2147.47 856.064 2150.83C851.036 2154.16 847.137 2159.01 844.367 2165.41C841.597 2171.76 840.212 2179.47 840.212 2188.55C840.212 2197.88 841.597 2205.72 844.367 2212.07C847.179 2218.42 851.1 2223.21 856.128 2226.45C861.157 2229.69 866.973 2231.31 873.578 2231.31C877.286 2231.31 880.716 2230.82 883.87 2229.84C887.066 2228.86 889.9 2227.43 892.371 2225.56C894.843 2223.64 896.888 2221.32 898.507 2218.59C900.169 2215.86 901.32 2212.75 901.959 2209.26L929.956 2209.38C929.232 2215.39 927.421 2221.19 924.523 2226.77C921.668 2232.31 917.811 2237.27 912.953 2241.66C908.138 2246.01 902.385 2249.46 895.695 2252.02C889.047 2254.53 881.526 2255.79 873.131 2255.79C861.455 2255.79 851.015 2253.15 841.81 2247.86C832.648 2242.58 825.404 2234.93 820.077 2224.92C814.793 2214.9 812.151 2202.78 812.151 2188.55C812.151 2174.27 814.836 2162.12 820.205 2152.11C825.574 2142.1 832.861 2134.47 842.066 2129.23C851.27 2123.94 861.625 2121.3 873.131 2121.3C880.716 2121.3 887.748 2122.37 894.225 2124.5C900.745 2126.63 906.519 2129.74 911.547 2133.83C916.576 2137.88 920.667 2142.84 923.82 2148.72C927.016 2154.6 929.061 2161.34 929.956 2168.92ZM949.804 2254V2123.09H977.481V2231.18H1033.6V2254H949.804ZM1079.61 2123.09V2254H1051.93V2123.09H1079.61ZM1217.89 2168.92H1189.89C1189.38 2165.3 1188.33 2162.08 1186.76 2159.27C1185.18 2156.41 1183.16 2153.99 1180.68 2151.98C1178.21 2149.98 1175.36 2148.45 1172.12 2147.38C1168.92 2146.32 1165.45 2145.78 1161.7 2145.78C1154.92 2145.78 1149.02 2147.47 1143.99 2150.83C1138.97 2154.16 1135.07 2159.01 1132.3 2165.41C1129.53 2171.76 1128.14 2179.47 1128.14 2188.55C1128.14 2197.88 1129.53 2205.72 1132.3 2212.07C1135.11 2218.42 1139.03 2223.21 1144.06 2226.45C1149.09 2229.69 1154.9 2231.31 1161.51 2231.31C1165.22 2231.31 1168.65 2230.82 1171.8 2229.84C1175 2228.86 1177.83 2227.43 1180.3 2225.56C1182.77 2223.64 1184.82 2221.32 1186.44 2218.59C1188.1 2215.86 1189.25 2212.75 1189.89 2209.26L1217.89 2209.38C1217.16 2215.39 1215.35 2221.19 1212.45 2226.77C1209.6 2232.31 1205.74 2237.27 1200.88 2241.66C1196.07 2246.01 1190.31 2249.46 1183.62 2252.02C1176.98 2254.53 1169.46 2255.79 1161.06 2255.79C1149.38 2255.79 1138.94 2253.15 1129.74 2247.86C1120.58 2242.58 1113.33 2234.93 1108.01 2224.92C1102.72 2214.9 1100.08 2202.78 1100.08 2188.55C1100.08 2174.27 1102.77 2162.12 1108.13 2152.11C1113.5 2142.1 1120.79 2134.47 1130 2129.23C1139.2 2123.94 1149.56 2121.3 1161.06 2121.3C1168.65 2121.3 1175.68 2122.37 1182.15 2124.5C1188.67 2126.63 1194.45 2129.74 1199.48 2133.83C1204.51 2137.88 1208.6 2142.84 1211.75 2148.72C1214.95 2154.6 1216.99 2161.34 1217.89 2168.92ZM1237.73 2254V2123.09H1265.41V2180.81H1267.14L1314.25 2123.09H1347.42L1298.84 2181.71L1348 2254H1314.89L1279.03 2200.18L1265.41 2216.8V2254H1237.73Z" fill="white"/>
</svg>
