<svg width="1307" height="1312" viewBox="0 0 1307 1312" fill="none" xmlns="http://www.w3.org/2000/svg">
<g clip-path="url(#clip0_7_2)">
<path d="M632.8 1.33332C625.6 1.99999 619.467 2.79999 619.2 2.93332C618.933 3.19999 665.2 49.8667 722 106.667L825.2 209.867L848.667 187.2C861.467 174.8 878.267 158.8 886 151.467L899.867 138.4L918.933 148.267C1004.67 192.933 1073.87 254.533 1128.27 334.667C1179.07 409.467 1210.67 492.933 1222.4 584L1224.8 602L1265.87 602.4L1306.93 602.667L1306 594.4C1294.93 488.4 1267.47 402.8 1217.87 320.267C1168.8 238.533 1092.67 159.867 1009.33 104.667C922.533 47.2 826.533 13.4667 720.933 3.33332C694.667 0.799989 649.733 -0.133344 632.8 1.33332Z" fill="white"/>
<path d="M484 70.1333C476.8 71.5999 466.933 75.1999 460 79.0666C454.267 82.1333 412.667 122.933 272.267 263.2C173.067 362.267 88.9333 446.933 85.3333 451.467C63.8666 478 60.8 513.2 77.3333 540.4C80.5333 545.6 179.6 645.6 422.533 888.4C755.067 1220.67 763.6 1229.07 773.333 1233.87C797.067 1245.47 824.8 1245.2 846.533 1233.2C852.4 1229.87 893.6 1189.47 1034.4 1048.8C1133.6 949.733 1217.73 865.067 1221.2 860.667C1241.2 835.733 1245.47 804.267 1232.53 777.067C1228 767.6 1220.4 759.867 886.267 425.867C651.6 191.2 542.667 83.1999 538.133 80.5333C525.6 73.4666 515.067 70.3999 500.667 69.9999C493.333 69.7333 485.867 69.8666 484 70.1333ZM828 482L1155.33 809.333L980.933 983.6L806.667 1158L479.067 830.4L151.333 502.667L325.333 328.667C421.067 232.933 499.6 154.667 500 154.667C500.4 154.667 648 302 828 482Z" fill="white"/>
<path d="M0 710.933C0 715.733 4.4 750.8 6.66667 764.933C28.8 901.867 88.6667 1018.13 188 1117.33C315.733 1244.8 472.533 1311.47 644 1311.07C662 1311.07 679.2 1310.53 682.4 1309.87L688 1308.67L584.8 1205.47L481.467 1102.13L456.667 1126.13C443.067 1139.2 426.267 1155.33 419.467 1161.73L406.933 1173.47L395.733 1167.87C331.333 1135.73 270.667 1089.33 224.933 1037.33C147.6 949.2 100.267 846.667 85.2 734C83.6 722.267 82.1333 711.867 81.8667 710.933C81.4667 709.733 72.1333 709.333 40.6667 709.333C9.06667 709.333 0 709.733 0 710.933Z" fill="white"/>
</g>
<defs>
<clipPath id="clip0_7_2">
<rect width="1306.67" height="1312" fill="white"/>
</clipPath>
</defs>
</svg>
